<svg xmlns="http://www.w3.org/2000/svg" style="display:none">
  <symbol id="icon-close" viewBox="0 0 24 24">
    <path d="M6 6l12 12M18 6L6 18" fill="none" stroke="currentColor" stroke-width="1.9" stroke-linecap="round" stroke-linejoin="round"/>
  </symbol>
  <symbol id="icon-warning" viewBox="0 0 24 24">
    <path d="M12 3l9 16H3L12 3z" fill="none" stroke="currentColor" stroke-width="1.9" stroke-linejoin="round"/>
    <path d="M12 9v4" fill="none" stroke="currentColor" stroke-width="1.9" stroke-linecap="round"/>
    <circle cx="12" cy="16.5" r="1" fill="currentColor"/>
  </symbol>
  <symbol id="icon-target" viewBox="0 0 24 24">
    <circle cx="12" cy="12" r="7" fill="none" stroke="currentColor" stroke-width="1.9"/>
    <circle cx="12" cy="12" r="3" fill="none" stroke="currentColor" stroke-width="1.9"/>
    <path d="M12 2v3M12 19v3M2 12h3M19 12h3" fill="none" stroke="currentColor" stroke-width="1.9" stroke-linecap="round"/>
  </symbol>
  <symbol id="icon-bolt" viewBox="0 0 24 24">
    <path d="M13 2L6 13h5l-1 9 8-12h-5l0-8z" fill="none" stroke="currentColor" stroke-width="1.9" stroke-linejoin="round"/>
  </symbol>
  <symbol id="icon-chart" viewBox="0 0 24 24">
    <path d="M4 19h16" fill="none" stroke="currentColor" stroke-width="1.9" stroke-linecap="round"/>
    <path d="M6 15l4-4 3 3 5-6" fill="none" stroke="currentColor" stroke-width="1.9" stroke-linecap="round" stroke-linejoin="round"/>
    <circle cx="6" cy="15" r="1" fill="currentColor"/>
    <circle cx="10" cy="11" r="1" fill="currentColor"/>
    <circle cx="13" cy="14" r="1" fill="currentColor"/>
    <circle cx="18" cy="8" r="1" fill="currentColor"/>
  </symbol>
  <symbol id="icon-bulb" viewBox="0 0 24 24">
    <path d="M9 18h6" fill="none" stroke="currentColor" stroke-width="1.9" stroke-linecap="round"/>
    <path d="M10 21h4" fill="none" stroke="currentColor" stroke-width="1.9" stroke-linecap="round"/>
    <path d="M8 14c-1.6-1.2-2.5-3-2.5-5A6.5 6.5 0 0112 2.5 6.5 6.5 0 0118.5 9c0 2-.9 3.8-2.5 5-.6.5-1 1.2-1 2v1H9v-1c0-.8-.4-1.5-1-2z" fill="none" stroke="currentColor" stroke-width="1.9" stroke-linejoin="round"/>
  </symbol>
  <symbol id="icon-device" viewBox="0 0 24 24">
    <rect x="7" y="3" width="10" height="18" rx="2.5" fill="none" stroke="currentColor" stroke-width="1.9"/>
    <path d="M10 6h4" fill="none" stroke="currentColor" stroke-width="1.9" stroke-linecap="round"/>
    <circle cx="12" cy="17.5" r="1" fill="currentColor"/>
  </symbol>
  <symbol id="icon-trophy" viewBox="0 0 24 24">
    <path d="M8 4h8v3a4 4 0 01-8 0V4z" fill="none" stroke="currentColor" stroke-width="1.9" stroke-linejoin="round"/>
    <path d="M9 14h6M10 18h4M7 21h10" fill="none" stroke="currentColor" stroke-width="1.9" stroke-linecap="round"/>
    <path d="M8 5H5a2 2 0 00-2 2 4 4 0 004 4h1M16 5h3a2 2 0 012 2 4 4 0 01-4 4h-1" fill="none" stroke="currentColor" stroke-width="1.9" stroke-linecap="round" stroke-linejoin="round"/>
  </symbol>
  <symbol id="icon-book" viewBox="0 0 24 24">
    <path d="M4 5.5A2.5 2.5 0 016.5 3H12v17H6.5A2.5 2.5 0 014 17.5v-12z" fill="none" stroke="currentColor" stroke-width="1.9" stroke-linejoin="round"/>
    <path d="M20 5.5A2.5 2.5 0 0017.5 3H12v17h5.5a2.5 2.5 0 002.5-2.5v-12z" fill="none" stroke="currentColor" stroke-width="1.9" stroke-linejoin="round"/>
  </symbol>
  <symbol id="icon-calculator" viewBox="0 0 24 24">
    <rect x="6" y="3" width="12" height="18" rx="2" fill="none" stroke="currentColor" stroke-width="1.9"/>
    <path d="M9 7h6M9 11h2M13 11h2M9 15h2M13 15h2" fill="none" stroke="currentColor" stroke-width="1.9" stroke-linecap="round"/>
  </symbol>
  <symbol id="icon-clipboard" viewBox="0 0 24 24">
    <rect x="6" y="5" width="12" height="16" rx="2" fill="none" stroke="currentColor" stroke-width="1.9"/>
    <path d="M9 5.5h6M10 3h4a1 1 0 011 1v2H9V4a1 1 0 011-1z" fill="none" stroke="currentColor" stroke-width="1.9" stroke-linejoin="round"/>
  </symbol>
  <symbol id="icon-cards" viewBox="0 0 24 24">
    <rect x="5" y="7" width="10" height="12" rx="2" fill="none" stroke="currentColor" stroke-width="1.9"/>
    <path d="M9 5h8a2 2 0 012 2v10" fill="none" stroke="currentColor" stroke-width="1.9" stroke-linecap="round"/>
    <path d="M8 11h4M8 14h4" fill="none" stroke="currentColor" stroke-width="1.9" stroke-linecap="round"/>
  </symbol>
  <symbol id="icon-flask" viewBox="0 0 24 24">
    <path d="M10 3h4M11 3v5l-5 8a3 3 0 002.6 4.5h6.8A3 3 0 0018 16L13 8V3" fill="none" stroke="currentColor" stroke-width="1.9" stroke-linecap="round" stroke-linejoin="round"/>
    <path d="M9 14h6" fill="none" stroke="currentColor" stroke-width="1.9" stroke-linecap="round"/>
  </symbol>
  <symbol id="icon-robot" viewBox="0 0 24 24">
    <rect x="6" y="8" width="12" height="10" rx="2" fill="none" stroke="currentColor" stroke-width="1.9"/>
    <path d="M12 4v2M9 18v2M15 18v2M4 12h2M18 12h2" fill="none" stroke="currentColor" stroke-width="1.9" stroke-linecap="round"/>
    <circle cx="10" cy="12" r="1" fill="currentColor"/>
    <circle cx="14" cy="12" r="1" fill="currentColor"/>
    <path d="M10 15h4" fill="none" stroke="currentColor" stroke-width="1.9" stroke-linecap="round"/>
  </symbol>
  <symbol id="icon-puzzle" viewBox="0 0 24 24">
    <path d="M9 4h4a2 2 0 012 2v1h1a2.5 2.5 0 110 5h-1v2h1a2.5 2.5 0 110 5h-3a2 2 0 01-2-2v-1H9v1a2 2 0 01-2 2H4v-4h1a2.5 2.5 0 100-5H4V6a2 2 0 012-2h3z" fill="none" stroke="currentColor" stroke-width="1.9" stroke-linejoin="round"/>
  </symbol>
  <symbol id="icon-lock" viewBox="0 0 24 24">
    <rect x="5" y="11" width="14" height="10" rx="2" fill="none" stroke="currentColor" stroke-width="1.9"/>
    <path d="M8 11V8a4 4 0 018 0v3" fill="none" stroke="currentColor" stroke-width="1.9" stroke-linecap="round"/>
  </symbol>
  <symbol id="icon-note" viewBox="0 0 24 24">
    <path d="M7 3h7l5 5v13H7a2 2 0 01-2-2V5a2 2 0 012-2z" fill="none" stroke="currentColor" stroke-width="1.9" stroke-linejoin="round"/>
    <path d="M14 3v5h5M9 13h6M9 17h6" fill="none" stroke="currentColor" stroke-width="1.9" stroke-linecap="round"/>
  </symbol>
  <symbol id="icon-card" viewBox="0 0 24 24">
    <rect x="3" y="6" width="18" height="12" rx="2" fill="none" stroke="currentColor" stroke-width="1.9"/>
    <path d="M3 10h18M7 14h4" fill="none" stroke="currentColor" stroke-width="1.9" stroke-linecap="round"/>
  </symbol>
  <symbol id="icon-rocket" viewBox="0 0 24 24">
    <path d="M14 4c3 0 6 3 6 6-3 0-6 3-6 6-3 0-6-3-6-6 0-3 3-6 6-6z" fill="none" stroke="currentColor" stroke-width="1.9" stroke-linejoin="round"/>
    <circle cx="14" cy="10" r="1.5" fill="currentColor"/>
    <path d="M8 16l-2 5 5-2M8 8L3 6l2 5" fill="none" stroke="currentColor" stroke-width="1.9" stroke-linecap="round" stroke-linejoin="round"/>
  </symbol>
  <symbol id="icon-flag" viewBox="0 0 24 24">
    <path d="M6 21V4" fill="none" stroke="currentColor" stroke-width="1.9" stroke-linecap="round"/>
    <path d="M6 5h10l-2 3 2 3H6" fill="none" stroke="currentColor" stroke-width="1.9" stroke-linejoin="round"/>
  </symbol>
  <symbol id="icon-check" viewBox="0 0 24 24">
    <path d="M5 12l4.5 4.5L19 7" fill="none" stroke="currentColor" stroke-width="1.9" stroke-linecap="round" stroke-linejoin="round"/>
  </symbol>
  <symbol id="icon-x" viewBox="0 0 24 24">
    <path d="M7 7l10 10M17 7L7 17" fill="none" stroke="currentColor" stroke-width="1.9" stroke-linecap="round" stroke-linejoin="round"/>
  </symbol>
  <symbol id="icon-info" viewBox="0 0 24 24">
    <circle cx="12" cy="12" r="9" fill="none" stroke="currentColor" stroke-width="1.9"/>
    <path d="M12 11v5" fill="none" stroke="currentColor" stroke-width="1.9" stroke-linecap="round"/>
    <circle cx="12" cy="8" r="1" fill="currentColor"/>
  </symbol>
  <symbol id="icon-download" viewBox="0 0 24 24">
    <path d="M12 4v10" fill="none" stroke="currentColor" stroke-width="1.9" stroke-linecap="round"/>
    <path d="M8 10l4 4 4-4" fill="none" stroke="currentColor" stroke-width="1.9" stroke-linecap="round" stroke-linejoin="round"/>
    <path d="M5 19h14" fill="none" stroke="currentColor" stroke-width="1.9" stroke-linecap="round"/>
  </symbol>
  <symbol id="icon-spark" viewBox="0 0 24 24">
    <path d="M12 3l1.8 5.2L19 10l-5.2 1.8L12 17l-1.8-5.2L5 10l5.2-1.8L12 3z" fill="none" stroke="currentColor" stroke-width="1.9" stroke-linejoin="round"/>
  </symbol>
  <symbol id="icon-star" viewBox="0 0 24 24">
    <path d="M12 3l2.8 5.8 6.4.9-4.6 4.5 1.1 6.3L12 17.5l-5.7 3 1.1-6.3L2.8 9.7l6.4-.9L12 3z" fill="currentColor" stroke="currentColor" stroke-width="1" stroke-linejoin="round"/>
  </symbol>
</svg>